<?xml version="1.0" encoding="UTF-8"?>
<svg width="120px" height="27px" viewBox="0 0 120 27" version="1.1" xmlns="http://www.w3.org/2000/svg" xmlns:xlink="http://www.w3.org/1999/xlink">
    <rect width="120px" height="27px"/>
	<!-- Generator: Sketch 43.2 (39069) - http://www.bohemiancoding.com/sketch -->
    <title>rplogo</title>
    <desc>Created with Sketch.</desc>
    <defs></defs>
    <g id="Page-1" stroke="none" stroke-width="1" fill="none" fill-rule="evenodd">
        <g id="rplogo" fill-rule="nonzero" fill="#FFFFFF">
            <rect id="Rectangle-path" x="87.0912957" y="2.94817276" width="3.56890365" height="4.02498339"></rect>
            <path d="M116.350166,15.3113621 C116.350166,17.3242525 115.065648,18.4744186 113.352558,18.4744186 C111.925316,18.4744186 110.497674,17.3242525 110.497674,15.3113621 C110.497674,13.2988704 111.925316,12.1487043 113.352558,12.1487043 C115.065648,12.1487043 116.350166,13.2984718 116.350166,15.3113621 L116.350166,15.3113621 Z M119.917874,21.3492359 L119.917874,9.27348837 L116.350166,9.27348837 L116.350166,10.4236545 L116.292359,10.4236545 C115.351096,9.27348837 113.923455,8.84172757 112.210764,8.84172757 C109.356678,8.84172757 106.787243,11.2859801 106.787243,15.3113621 C106.787243,19.3371429 109.356279,21.780598 112.210764,21.780598 C113.923455,21.780598 115.351096,21.3496346 116.292359,20.1990698 L116.350166,20.1990698 L116.350166,21.3496346 L119.917874,21.3496346 L119.917874,21.3492359 Z" id="Shape"></path>
            <path d="M105.36,19.3367442 L103.076412,17.0360133 C102.220066,18.1861794 101.363322,18.7614618 99.9364784,18.7614618 C98.3665116,18.7614618 97.0815947,17.3238538 97.0815947,15.3109635 C97.0815947,13.2984718 98.2524917,11.8604651 99.9364784,11.8604651 C101.506445,11.8604651 102.220066,12.4357475 103.076412,13.2980731 L104.931827,10.9977409 C103.64691,9.56013289 102.219668,8.84093023 99.9364784,8.84093023 C95.9401993,8.84093023 93.3711628,11.5726246 93.3711628,15.3105648 C93.3711628,19.0489037 95.9398007,21.7798007 99.9364784,21.7798007 C102.220066,21.7801993 103.647309,21.061794 105.36,19.3367442" id="Shape"></path>
            <rect id="Rectangle-path" x="87.0912957" y="9.27348837" width="3.56890365" height="12.0761462"></rect>
            <rect id="Rectangle-path" x="80.098206" y="0.360398671" width="3.56810631" height="20.9888372"></rect>
            <path d="M73.6756146,15.3113621 C73.6756146,17.3242525 72.2487708,18.4744186 70.8219269,18.4744186 C69.1088372,18.4744186 67.8243189,17.3242525 67.8243189,15.3113621 C67.8243189,13.2988704 69.1088372,12.1487043 70.8219269,12.1487043 C72.2487708,12.1487043 73.6756146,13.2984718 73.6756146,15.3113621 M77.3868439,15.3113621 C77.3868439,11.2859801 74.8178073,8.84212625 71.9633223,8.84212625 C70.2506312,8.84212625 68.8233887,9.27348837 67.8817276,10.4236545 L67.8243189,10.4236545 L67.8243189,0.360398671 L64.2566113,0.360398671 L64.2566113,21.3492359 L67.8243189,21.3492359 L67.8243189,20.1986711 L67.8817276,20.1986711 C68.8233887,21.3492359 70.2506312,21.7801993 71.9633223,21.7801993 C74.8178073,21.7801993 77.3868439,19.3367442 77.3868439,15.3113621" id="Shape"></path>
            <path d="M60.8312292,21.3492359 L60.8312292,9.27348837 L57.2631229,9.27348837 L57.2631229,15.8862458 C57.2631229,17.3238538 56.2640532,18.4740199 54.8368106,18.4740199 C53.1245183,18.4740199 52.5528239,17.6112957 52.5528239,15.8862458 L52.5528239,9.27348837 L48.9851163,9.27348837 L48.9851163,17.036412 C48.9851163,20.1990698 50.5550831,21.7801993 53.3525581,21.7801993 C54.8368106,21.7801993 56.2640532,21.3492359 57.2057143,20.1986711 L57.2635216,20.1986711 L57.2635216,21.3492359 L60.8312292,21.3492359 L60.8312292,21.3492359 Z" id="Shape"></path>
            <path d="M42.7052492,15.3113621 C42.7052492,17.3242525 41.2780066,18.4744186 39.8503654,18.4744186 C38.1380731,18.4744186 36.8535548,17.3242525 36.8535548,15.3113621 C36.8535548,13.2988704 38.1380731,12.1487043 39.8503654,12.1487043 C41.2780066,12.1487043 42.7052492,13.2984718 42.7052492,15.3113621 M46.4160797,15.3113621 C46.4160797,11.2859801 43.8470432,8.84212625 40.9925581,8.84212625 C39.2798671,8.84212625 37.8526246,9.27348837 36.9105648,10.4236545 L36.8535548,10.4236545 L36.8535548,9.27348837 L33.2854485,9.27348837 L33.2854485,26.8126246 L36.8535548,26.8126246 L36.8535548,20.1990698 L36.9105648,20.1990698 C37.8526246,21.3496346 39.2798671,21.780598 40.9925581,21.780598 C43.8470432,21.7801993 46.4160797,19.3367442 46.4160797,15.3113621" id="Shape"></path>
            <rect id="Rectangle-path" x="25.5783389" y="9.27348837" width="3.71122924" height="4.02538206"></rect>
            <rect id="Rectangle-path" x="25.5783389" y="17.3242525" width="3.71122924" height="4.02538206"></rect>
            <path d="M7.73820598,12.1487043 L7.73820598,8.84212625 C5.74046512,8.84212625 4.88372093,9.27388704 3.94166113,10.7110963 L3.88425249,10.7110963 L3.88425249,9.27388704 L0.31654485,9.27388704 L0.31654485,21.3496346 L3.88425249,21.3496346 L3.88425249,14.88 C3.88425249,13.2123588 4.9407309,12.0912957 6.9958804,12.0912957 C7.22431894,12.0912957 7.48146179,12.12 7.73820598,12.1487043" id="Shape"></path>
            <path d="M18.7275748,14.161196 L13.0186047,14.161196 C13.3044518,13.0110299 14.1603987,11.8612625 15.8730897,11.8612625 C17.5861794,11.8612625 18.4425249,13.0110299 18.7275748,14.161196 L18.7275748,14.161196 Z M22.2956811,16.4615282 L22.2956811,15.0243189 C22.2956811,11.7177409 19.6126246,8.84252492 15.8730897,8.84252492 C11.8772093,8.84252492 9.30817276,11.5742193 9.30817276,15.3121595 C9.30817276,19.049701 11.8772093,21.7809967 15.8730897,21.7809967 C18.7275748,21.7809967 20.4406645,21.0621927 21.8962126,19.0209967 L19.2131561,17.6124917 C18.1566777,18.7626578 17.3003322,19.049701 15.8730897,19.049701 C14.4454485,19.049701 13.3044518,17.8995349 13.0186047,16.4619269 L22.2956811,16.4619269 L22.2956811,16.4615282 Z" id="Shape"></path>
        </g>
    </g>
</svg>