<?xml version="1.0" encoding="UTF-8" standalone="no"?>
<svg
   xmlns:dc="http://purl.org/dc/elements/1.1/"
   xmlns:cc="http://creativecommons.org/ns#"
   xmlns:rdf="http://www.w3.org/1999/02/22-rdf-syntax-ns#"
   xmlns:svg="http://www.w3.org/2000/svg"
   xmlns="http://www.w3.org/2000/svg"
   xmlns:sodipodi="http://sodipodi.sourceforge.net/DTD/sodipodi-0.dtd"
   xmlns:inkscape="http://www.inkscape.org/namespaces/inkscape"
   viewBox="0 0 200 50"
   version="1.1"
   id="svg4"
   sodipodi:docname="Civey Logo 10.2019.svg"
   inkscape:version="0.92.1 r15371">
  <metadata
     id="metadata10">
    <rdf:RDF>
      <cc:Work
         rdf:about="">
        <dc:format>image/svg+xml</dc:format>
        <dc:type
           rdf:resource="http://purl.org/dc/dcmitype/StillImage" />
        <dc:title></dc:title>
      </cc:Work>
    </rdf:RDF>
  </metadata>
  <defs
     id="defs8" />
  <sodipodi:namedview
     pagecolor="#ffffff"
     bordercolor="#666666"
     borderopacity="1"
     objecttolerance="10"
     gridtolerance="10"
     guidetolerance="10"
     inkscape:pageopacity="0"
     inkscape:pageshadow="2"
     inkscape:window-width="1920"
     inkscape:window-height="1001"
     id="namedview6"
     showgrid="false"
     inkscape:zoom="2.205"
     inkscape:cx="100"
     inkscape:cy="25"
     inkscape:window-x="-9"
     inkscape:window-y="-9"
     inkscape:window-maximized="1"
     inkscape:current-layer="svg4" />
  <path
     fill="#000000"
     d="M96.5 42h3.9V7.9h-3.9V42zm37.1-34.1l-11.8 29.6L110 7.9h-4.2L119.7 42h4.1l14-34.1h-4.2zm9.6 0V42H167v-3.7h-19.9V26.6h17.2v-3.8h-17.2V11.7h19.3V7.9h-23.2zm52.8 0l-10.9 17.8L174 7.9h-4.1l13.2 22.6V42h3.9V30.3l13-22.4h-4zM68 10.1c-2.7 1.5-4.9 3.6-6.5 6.2s-2.4 5.5-2.4 8.6c0 3.2.8 6.1 2.4 8.7 1.6 2.6 3.7 4.7 6.4 6.3 2.7 1.5 5.7 2.3 8.9 2.3 2.3 0 4.6-.5 6.8-1.4 2.2-.9 4.2-2.2 5.9-3.8l-2.4-2.7c-1.4 1.3-2.9 2.3-4.7 3-1.8.7-3.6 1.1-5.4 1.1-2.5 0-4.9-.6-7-1.8s-3.8-2.8-5.1-4.9c-1.2-2.1-1.8-4.3-1.8-6.8s.6-4.7 1.8-6.8c1.2-2.1 2.9-3.7 5-4.9s4.5-1.8 7-1.8c1.9 0 3.7.4 5.4 1.1 1.8.8 3.3 1.8 4.7 3.1l2.4-3c-1.7-1.6-3.6-2.8-5.8-3.7-2.2-.9-4.4-1.3-6.7-1.3-3.2.2-6.2 1-8.9 2.5zM24.7 49.7h24.6V25.1L24.7 49.7zM0 .3v49.4h24.7L0 25 24.7.3H0zm24.7 0l7.7 8.1L15.8 25l8.9 8.9 16.6-17 8 8V.3H24.7z"
     id="path2" />
</svg>
